<?xml version="1.0" encoding="UTF-8"?>
<svg width="1200pt" height="1200pt" version="1.1" viewBox="0 0 1200 1200" xmlns="http://www.w3.org/2000/svg">
 <path d="m600 213.75c-213.75 0-386.25 172.5-386.25 386.25s172.5 386.25 386.25 386.25 386.25-172.5 386.25-386.25-172.5-386.25-386.25-386.25zm210 416.25h-210c-15 0-30-11.25-30-30v-251.25c0-15 11.25-30 30-30 15 0 30 11.25 30 30v221.25h180c15 0 30 11.25 30 30-3.75 15-15 30-30 30z"/>
 <path d="m600 18.75c-318.75 0-581.25 262.5-581.25 581.25s262.5 581.25 581.25 581.25 581.25-262.5 581.25-581.25-262.5-581.25-581.25-581.25zm0 1023.8c-243.75 0-442.5-198.75-442.5-442.5s198.75-442.5 442.5-442.5 442.5 198.75 442.5 442.5-198.75 442.5-442.5 442.5z"/>
</svg>
