<?xml version="1.0" encoding="UTF-8"?>
<svg width="1200pt" height="1200pt" version="1.1" viewBox="0 0 1200 1200" xmlns="http://www.w3.org/2000/svg">
 <path d="m234.93 785.59-25.301 8.9141 98.164 299.98 25.301-8.9141zm-59.938-11.785 117.8 352.89-108.4 36.324-117.8-352.89zm432.91-86.301c37.426-87.586 83.836-174.82 131.76-252.86 72.352-117.81 148.43-214.95 202.44-260.93 5.0508-4.3008 12.637-3.6875 16.938 1.3633 4.0391 4.75 3.7383 11.711-0.48828 16.113l0.023437 0.023438c-50.512 52.586-109.9 143.96-166.45 254.23-44.488 86.762-87.137 185.15-122.27 285.56 31.664 4.1875 77.273-0.5625 113.74-5.0859 219.49-31.688 229.82-197.71 240.46-369.02 7.2109-116 14.562-234.32 83.488-319.9-177.74 28.688-356.31 107.34-465.24 233.43-68.074 78.801-102.68 170.27-90.602 264.62 2.5234 19.711 8.1641 44.648 15.602 64.688 9.6172 24.605 27.879 65.27 40.602 87.77zm-24.812 98.062c24.125 9.1367 39.887 16.988 63.238 28.289 47.914 23.211 71.227 34.5 162.35 43.137 39.227 3.7109 113.6-18.574 117.2 8.6133 3.0391 22.949-27.602 44.551-47.875 56.125-28.539 16.273-71.586 31.414-92.961 32.086-8.6133 0.27344-45.188-8.5391-78.887-16.625-19.387-4.6484-44.523-10.688-49.699-11.137l-96.914-8.1484c-6.6367-0.55078-12.477 4.3984-13.023 11.039-0.55078 6.6367 4.3867 12.461 11.039 13.012l96.477 8.125c8.1484 1.3008 26.312 5.6641 46.551 10.512 34.574 8.3008 74.926 17.977 85.926 17.273 26.523-1.6758 70.523-16.449 103.39-35.199 7.0859-4.0508 13.887-8.3867 20.188-13 10.551-2.9883 41.523-13.539 72.926-25.961 60.164-23.824 81.988-36.727 128.2-74.812 21.176-17.461 36.938-30.699 43.539-20.488 6.1133 9.4492-1.0117 29.961-14.301 53.438-19.512 34.512-62.625 87.387-95.727 108.81-61.211 39.625-117.43 65.477-176.36 82.727-56.613 16.551-123.94 26.699-194.43 31.301-37.336 1.6992-108.16-13.551-169.8-26.824-47.125-10.148-89.012-19.164-109.14-18.949-16.227 0.17578-33.398 3.9141-49 8.625l-77.238-236.05c21.586-9.6875 39.25-19.414 55.438-28.352 62.977-34.711 102.69-56.574 257.89 2.0508zm19.102-18.488c44.539-121.3 111.29-248.1 180.65-355.89-58.562 110.66-113.57 239.75-154.38 367.45zm-182.81-101.25c-32.438-44.613-68.211-88.051-103.82-127.09-62.586-68.637-124.21-123.29-165.55-146.38l0.011719-0.011719c-5.3359-2.9609-7.6641-9.5508-5.1992-15.273 2.6367-6.1016 9.6992-8.8984 15.801-6.2734 46.5 20.148 134.45 85.852 218.9 168.14 26.625 25.938 52.949 53.574 77.602 82 2.8359-14.586 6.5-40.789 7.4883-55.312 0.625-14.273-0.26172-28.086-2.5234-41.414-10.051-58.926-47.711-107.62-103.25-142.6-86.664-54.586-205.2-70.199-315.8-56.898 53.324 41.262 78.852 109.45 103.91 176.38 37.973 101.41 74.77 199.67 211.56 178.91 20.852-3.6641 43.926-8.1367 60.875-14.176zm73.227 66.176c7.3359 1.6484 15.023 3.5625 23.102 5.7734-40.414-63.012-96.477-126.21-149.98-178.64 45.336 53 90.461 113.03 126.88 172.86z" fill-rule="evenodd"/>
</svg>
