<?xml version="1.0" encoding="UTF-8"?>
<svg width="1200pt" height="1200pt" version="1.1" viewBox="0 0 1200 1200" xmlns="http://www.w3.org/2000/svg">
 <path d="m581.58 161.76 346.08 72.938c8.7188 1.8281 14.953 9.5156 14.953 18.469v355.5c0 94.969-38.625 192.56-108.75 274.74-67.922 79.547-159.89 136.18-252.37 155.29-1.2656 0.23438-2.5312 0.375-3.7969 0.375s-2.5781-0.14062-3.8438-0.375c-92.438-19.125-184.45-75.75-252.32-155.29-70.125-82.172-108.75-179.72-108.75-274.74v-355.5c0-8.9062 6.2344-16.594 14.953-18.469l346.08-72.938c2.5312-0.51562 5.2031-0.51562 7.7812 0zm323.29 106.73-327.19-68.953-327.19 68.953v340.18c0 174.71 149.44 353.39 327.19 392.26 177.74-38.859 327.19-217.55 327.19-392.26zm-151.55 130.92-238.64 238.64-112.64-112.64c-7.3594-7.3594-19.312-7.3594-26.672 0-7.3594 7.3594-7.3594 19.312 0 26.672l126 126c3.5156 3.5156 8.3438 5.5312 13.359 5.5312 5.0156 0 9.7969-1.9688 13.359-5.5312l251.95-251.95c7.3594-7.3594 7.3594-19.312 0-26.672-7.4062-7.4062-19.359-7.4062-26.719-0.046875zm260.02 209.26v-428.21l-435.66-91.828-435.66 91.828v428.21c0 234.52 199.22 463.97 435.66 502.64 236.44-38.672 435.66-268.13 435.66-502.64z" fill-rule="evenodd"/>
</svg>
